<svg xmlns="http://www.w3.org/2000/svg" width="1052" height="430" viewBox="0 0 1052 430" role="img" aria-label="QuickPLS model diagram" class="smartpls mono">
<defs>
<marker id="arrow" markerWidth="8" markerHeight="8" refX="7" refY="4" orient="auto"><path d="M0,0 L8,4 L0,8 z" class="arrow"/></marker>
<marker id="arrow-start" markerWidth="8" markerHeight="8" refX="1" refY="4" orient="auto"><path d="M8,0 L0,4 L8,8 z" class="arrow"/></marker>
<style>
.bg{fill:#fff}.caption{font:10px Arial,sans-serif;fill:#526169}.warning{font:10px Arial,sans-serif;fill:#666}
.latent{fill:#fff;stroke:#2d777a;stroke-width:1.8}.latent.formative{stroke:#a16d0b}.latent-title{font:700 12px Arial,sans-serif;fill:#172126}.latent-meta{font:10px Arial,sans-serif;fill:#56656b}.r2{font:700 10px Arial,sans-serif;fill:#32630d}.indicator{fill:#fff8df;stroke:#c49116;stroke-width:1.2}.indicator.formative{fill:#eaf8f8;stroke:#0b8f92}.indicator-text{font:700 9px Arial,sans-serif;fill:#253137}.indicator-stat{font:700 8px Arial,sans-serif;fill:#32630d}
.smartpls-latent{fill:#7d7d7d;stroke:#777;stroke-width:1}.smartpls-latent-label{font:10px Arial,sans-serif;fill:#222}.smartpls-r2{font:700 10px Arial,sans-serif;fill:#fff}.smartpls-indicator{fill:#eee;stroke:#d2d2d2;stroke-width:1}.smartpls-indicator-text{font:700 9px Arial,sans-serif;fill:#222}
.edge{stroke:#465961;stroke-width:1.45;fill:none}.measurement{stroke:#9c7a20;stroke-width:1.05;fill:none}.measurement.formative{stroke:#0c777b}.covariance{stroke:#8d5798;stroke-width:1.25;stroke-dasharray:4 3;fill:none}.edge-label{font:700 10px Arial,sans-serif;fill:#172126}.label-bg{fill:#fff;stroke:#dce2e5}.arrow{fill:#465961}
.smartpls .edge,.smartpls .measurement{stroke:#333;stroke-width:1.05}.smartpls .edge-label{font:500 9px Arial,sans-serif;fill:#222}.smartpls .label-bg{fill:#fff;stroke:none;fill-opacity:.85}.smartpls .arrow{fill:#333}
.mono .latent,.mono .indicator{stroke:#333}.mono .indicator{fill:#fff}.mono .edge,.mono .measurement,.mono .covariance{stroke:#333}.mono .arrow{fill:#333}.high-contrast .smartpls-latent{fill:#222;stroke:#111}.high-contrast .smartpls-indicator{fill:#fff;stroke:#111}.quickpls-color .smartpls-latent{fill:#4f9fa2;stroke:#1f6e72}.quickpls-color .smartpls-indicator{fill:#fff8df;stroke:#c49116}
</style>
</defs>
<rect class="bg" width="100%" height="100%"/>
<text x="42" y="25" class="caption">QuickPLS model diagram</text>
<path class="edge" d="M290,153 L482,153" marker-end="url(#arrow)"/>

<path class="edge" d="M290,271 L482,271" marker-end="url(#arrow)"/>

<path class="edge" d="M570,153 L762,153" marker-end="url(#arrow)"/>

<path class="edge" d="M570,271 L762,153" marker-end="url(#arrow)"/>

<path class="measurement formative" d="M120,123 L202,153" marker-end="url(#arrow)"/>

<path class="measurement formative" d="M120,153 L202,153" marker-end="url(#arrow)"/>

<path class="measurement formative" d="M120,183 L202,153" marker-end="url(#arrow)"/>

<path class="measurement " d="M202,271 L120,241" marker-end="url(#arrow)"/>

<path class="measurement " d="M202,271 L120,271" marker-end="url(#arrow)"/>

<path class="measurement " d="M202,271 L120,301" marker-end="url(#arrow)"/>

<path class="measurement formative" d="M440,66 L526,124" marker-end="url(#arrow)"/>

<path class="measurement formative" d="M526,66 L526,124" marker-end="url(#arrow)"/>

<path class="measurement formative" d="M612,66 L526,124" marker-end="url(#arrow)"/>

<path class="measurement " d="M526,242 L440,184" marker-end="url(#arrow)"/>

<path class="measurement " d="M526,242 L526,184" marker-end="url(#arrow)"/>

<path class="measurement " d="M526,242 L612,184" marker-end="url(#arrow)"/>

<path class="measurement formative" d="M932,123 L850,153" marker-end="url(#arrow)"/>

<path class="measurement formative" d="M932,153 L850,153" marker-end="url(#arrow)"/>

<path class="measurement formative" d="M932,183 L850,153" marker-end="url(#arrow)"/>

<ellipse class="smartpls-latent" cx="246" cy="153" rx="44" ry="29"/>

<text x="246" y="198" text-anchor="middle" class="smartpls-latent-label">Construct 1</text>
<ellipse class="smartpls-latent" cx="246" cy="271" rx="44" ry="29"/>

<text x="246" y="316" text-anchor="middle" class="smartpls-latent-label">Construct 2</text>
<ellipse class="smartpls-latent" cx="526" cy="153" rx="44" ry="29"/>

<text x="526" y="198" text-anchor="middle" class="smartpls-latent-label">Construct 3</text>
<ellipse class="smartpls-latent" cx="526" cy="271" rx="44" ry="29"/>

<text x="526" y="316" text-anchor="middle" class="smartpls-latent-label">Construct 4</text>
<ellipse class="smartpls-latent" cx="806" cy="153" rx="44" ry="29"/>

<text x="806" y="198" text-anchor="middle" class="smartpls-latent-label">Construct 5</text>
<rect class="smartpls-indicator" x="42" y="111" width="78" height="24"/>
<text x="81" y="127" text-anchor="middle" class="smartpls-indicator-text">C1I1</text>
<rect class="smartpls-indicator" x="42" y="141" width="78" height="24"/>
<text x="81" y="157" text-anchor="middle" class="smartpls-indicator-text">C1I2</text>
<rect class="smartpls-indicator" x="42" y="171" width="78" height="24"/>
<text x="81" y="187" text-anchor="middle" class="smartpls-indicator-text">C1I3</text>
<rect class="smartpls-indicator" x="42" y="229" width="78" height="24"/>
<text x="81" y="245" text-anchor="middle" class="smartpls-indicator-text">C2I1</text>
<rect class="smartpls-indicator" x="42" y="259" width="78" height="24"/>
<text x="81" y="275" text-anchor="middle" class="smartpls-indicator-text">C2I2</text>
<rect class="smartpls-indicator" x="42" y="289" width="78" height="24"/>
<text x="81" y="305" text-anchor="middle" class="smartpls-indicator-text">C2I3</text>
<rect class="smartpls-indicator" x="401" y="42" width="78" height="24"/>
<text x="440" y="58" text-anchor="middle" class="smartpls-indicator-text">C3I1</text>
<rect class="smartpls-indicator" x="487" y="42" width="78" height="24"/>
<text x="526" y="58" text-anchor="middle" class="smartpls-indicator-text">C3I2</text>
<rect class="smartpls-indicator" x="573" y="42" width="78" height="24"/>
<text x="612" y="58" text-anchor="middle" class="smartpls-indicator-text">C3I3</text>
<rect class="smartpls-indicator" x="401" y="160" width="78" height="24"/>
<text x="440" y="176" text-anchor="middle" class="smartpls-indicator-text">C4I1</text>
<rect class="smartpls-indicator" x="487" y="160" width="78" height="24"/>
<text x="526" y="176" text-anchor="middle" class="smartpls-indicator-text">C4I2</text>
<rect class="smartpls-indicator" x="573" y="160" width="78" height="24"/>
<text x="612" y="176" text-anchor="middle" class="smartpls-indicator-text">C4I3</text>
<rect class="smartpls-indicator" x="932" y="111" width="78" height="24"/>
<text x="971" y="127" text-anchor="middle" class="smartpls-indicator-text">C5I1</text>
<rect class="smartpls-indicator" x="932" y="141" width="78" height="24"/>
<text x="971" y="157" text-anchor="middle" class="smartpls-indicator-text">C5I2</text>
<rect class="smartpls-indicator" x="932" y="171" width="78" height="24"/>
<text x="971" y="187" text-anchor="middle" class="smartpls-indicator-text">C5I3</text>


</svg>