<svg xmlns="http://www.w3.org/2000/svg" width="1032" height="430" viewBox="0 0 1032 430" role="img" aria-label="QuickPLS model diagram" class="smartpls mono">
<defs>
<marker id="arrow" markerWidth="8" markerHeight="8" refX="7" refY="4" orient="auto"><path d="M0,0 L8,4 L0,8 z" class="arrow"/></marker>
<marker id="arrow-start" markerWidth="8" markerHeight="8" refX="1" refY="4" orient="auto"><path d="M8,0 L0,4 L8,8 z" class="arrow"/></marker>
<style>
.bg{fill:#fff}.caption{font:10px Arial,sans-serif;fill:#526169}.warning{font:10px Arial,sans-serif;fill:#666}
.latent{fill:#fff;stroke:#2d777a;stroke-width:1.8}.latent.formative{stroke:#a16d0b}.latent-title{font:700 12px Arial,sans-serif;fill:#172126}.latent-meta{font:10px Arial,sans-serif;fill:#56656b}.r2{font:700 10px Arial,sans-serif;fill:#32630d}.indicator{fill:#fff8df;stroke:#c49116;stroke-width:1.2}.indicator.formative{fill:#eaf8f8;stroke:#0b8f92}.indicator-text{font:700 9px Arial,sans-serif;fill:#253137}.indicator-stat{font:700 8px Arial,sans-serif;fill:#32630d}
.smartpls-latent{fill:#7d7d7d;stroke:#777;stroke-width:1}.smartpls-latent-label{font:10px Arial,sans-serif;fill:#222}.smartpls-r2{font:700 10px Arial,sans-serif;fill:#fff}.smartpls-indicator{fill:#eee;stroke:#d2d2d2;stroke-width:1}.smartpls-indicator-text{font:700 9px Arial,sans-serif;fill:#222}
.edge{stroke:#465961;stroke-width:1.45;fill:none}.measurement{stroke:#9c7a20;stroke-width:1.05;fill:none}.measurement.formative{stroke:#0c777b}.covariance{stroke:#8d5798;stroke-width:1.25;stroke-dasharray:4 3;fill:none}.edge-label{font:700 10px Arial,sans-serif;fill:#172126}.label-bg{fill:#fff;stroke:#dce2e5}.arrow{fill:#465961}
.smartpls .edge,.smartpls .measurement{stroke:#333;stroke-width:1.05}.smartpls .edge-label{font:500 9px Arial,sans-serif;fill:#222}.smartpls .label-bg{fill:#fff;stroke:none;fill-opacity:.85}.smartpls .arrow{fill:#333}
.mono .latent,.mono .indicator{stroke:#333}.mono .indicator{fill:#fff}.mono .edge,.mono .measurement,.mono .covariance{stroke:#333}.mono .arrow{fill:#333}.high-contrast .smartpls-latent{fill:#222;stroke:#111}.high-contrast .smartpls-indicator{fill:#fff;stroke:#111}.quickpls-color .smartpls-latent{fill:#4f9fa2;stroke:#1f6e72}.quickpls-color .smartpls-indicator{fill:#fff8df;stroke:#c49116}
</style>
</defs>
<rect class="bg" width="100%" height="100%"/>
<text x="42" y="25" class="caption">QuickPLS model diagram</text>
<path class="edge" d="M290,153 L472,153" marker-end="url(#arrow)"/>

<path class="edge" d="M290,288 L472,288" marker-end="url(#arrow)"/>

<path class="edge" d="M560,153 L742,220.5" marker-end="url(#arrow)"/>

<path class="edge" d="M560,288 L742,220.5" marker-end="url(#arrow)"/>

<path class="measurement formative" d="M120,123 L202,153" marker-end="url(#arrow)"/>

<path class="measurement formative" d="M120,153 L202,153" marker-end="url(#arrow)"/>

<path class="measurement formative" d="M120,183 L202,153" marker-end="url(#arrow)"/>

<path class="measurement " d="M202,288 L120,258" marker-end="url(#arrow)"/>

<path class="measurement " d="M202,288 L120,288" marker-end="url(#arrow)"/>

<path class="measurement " d="M202,288 L120,318" marker-end="url(#arrow)"/>

<path class="measurement formative" d="M430,66 L516,124" marker-end="url(#arrow)"/>

<path class="measurement formative" d="M516,66 L516,124" marker-end="url(#arrow)"/>

<path class="measurement formative" d="M602,66 L516,124" marker-end="url(#arrow)"/>

<path class="measurement " d="M516,259 L430,201" marker-end="url(#arrow)"/>

<path class="measurement " d="M516,259 L516,201" marker-end="url(#arrow)"/>

<path class="measurement " d="M516,259 L602,201" marker-end="url(#arrow)"/>

<path class="measurement formative" d="M912,190.5 L830,220.5" marker-end="url(#arrow)"/>

<path class="measurement formative" d="M912,220.5 L830,220.5" marker-end="url(#arrow)"/>

<path class="measurement formative" d="M912,250.5 L830,220.5" marker-end="url(#arrow)"/>

<ellipse class="smartpls-latent" cx="246" cy="153" rx="44" ry="29"/>

<text x="246" y="198" text-anchor="middle" class="smartpls-latent-label">Construct 1</text>
<ellipse class="smartpls-latent" cx="246" cy="288" rx="44" ry="29"/>

<text x="246" y="333" text-anchor="middle" class="smartpls-latent-label">Construct 2</text>
<ellipse class="smartpls-latent" cx="516" cy="153" rx="44" ry="29"/>

<text x="516" y="198" text-anchor="middle" class="smartpls-latent-label">Construct 3</text>
<ellipse class="smartpls-latent" cx="516" cy="288" rx="44" ry="29"/>

<text x="516" y="333" text-anchor="middle" class="smartpls-latent-label">Construct 4</text>
<ellipse class="smartpls-latent" cx="786" cy="220.5" rx="44" ry="29"/>

<text x="786" y="265.5" text-anchor="middle" class="smartpls-latent-label">Construct 5</text>
<rect class="smartpls-indicator" x="42" y="111" width="78" height="24"/>
<text x="81" y="127" text-anchor="middle" class="smartpls-indicator-text">C1I1</text>
<rect class="smartpls-indicator" x="42" y="141" width="78" height="24"/>
<text x="81" y="157" text-anchor="middle" class="smartpls-indicator-text">C1I2</text>
<rect class="smartpls-indicator" x="42" y="171" width="78" height="24"/>
<text x="81" y="187" text-anchor="middle" class="smartpls-indicator-text">C1I3</text>
<rect class="smartpls-indicator" x="42" y="246" width="78" height="24"/>
<text x="81" y="262" text-anchor="middle" class="smartpls-indicator-text">C2I1</text>
<rect class="smartpls-indicator" x="42" y="276" width="78" height="24"/>
<text x="81" y="292" text-anchor="middle" class="smartpls-indicator-text">C2I2</text>
<rect class="smartpls-indicator" x="42" y="306" width="78" height="24"/>
<text x="81" y="322" text-anchor="middle" class="smartpls-indicator-text">C2I3</text>
<rect class="smartpls-indicator" x="391" y="42" width="78" height="24"/>
<text x="430" y="58" text-anchor="middle" class="smartpls-indicator-text">C3I1</text>
<rect class="smartpls-indicator" x="477" y="42" width="78" height="24"/>
<text x="516" y="58" text-anchor="middle" class="smartpls-indicator-text">C3I2</text>
<rect class="smartpls-indicator" x="563" y="42" width="78" height="24"/>
<text x="602" y="58" text-anchor="middle" class="smartpls-indicator-text">C3I3</text>
<rect class="smartpls-indicator" x="391" y="177" width="78" height="24"/>
<text x="430" y="193" text-anchor="middle" class="smartpls-indicator-text">C4I1</text>
<rect class="smartpls-indicator" x="477" y="177" width="78" height="24"/>
<text x="516" y="193" text-anchor="middle" class="smartpls-indicator-text">C4I2</text>
<rect class="smartpls-indicator" x="563" y="177" width="78" height="24"/>
<text x="602" y="193" text-anchor="middle" class="smartpls-indicator-text">C4I3</text>
<rect class="smartpls-indicator" x="912" y="178.5" width="78" height="24"/>
<text x="951" y="194.5" text-anchor="middle" class="smartpls-indicator-text">C5I1</text>
<rect class="smartpls-indicator" x="912" y="208.5" width="78" height="24"/>
<text x="951" y="224.5" text-anchor="middle" class="smartpls-indicator-text">C5I2</text>
<rect class="smartpls-indicator" x="912" y="238.5" width="78" height="24"/>
<text x="951" y="254.5" text-anchor="middle" class="smartpls-indicator-text">C5I3</text>


</svg>